<svg width="1440" height="629" viewBox="0 0 1440 629" fill="none" xmlns="http://www.w3.org/2000/svg">
<path d="M1 1.9642C67.8152 1.9642 134.746 -6.73444 193.96 28.1227C230.819 49.8207 254.686 83.6501 275.377 118.908C301.477 163.383 319.282 214.942 360.214 248.162C401.146 281.382 451.772 301.448 501.881 312.174C562.604 325.172 620.152 287.04 661.134 248.47C711.5 201.068 743.16 137.784 744 69.5C744.279 46.8133 739.606 15.8467 714 13C669.763 8.08203 653.431 137.914 652.341 162.301C650.909 194.328 648.938 228.892 659.505 259.857C681.523 324.372 787.02 347.497 803.054 351.027C819.088 354.557 928.294 380.997 1034.12 397.497C1139.94 413.997 1262.2 404.467 1367.77 436.889C1421.28 453.325 1477.23 483.942 1511.88 526.597C1538.44 559.302 1538.4 588.914 1542 628" stroke="url(#paint0_linear_1075_12949)" stroke-opacity="0.39" stroke-width="2" stroke-linecap="round" stroke-dasharray="12 12"/>
<defs>
<linearGradient id="paint0_linear_1075_12949" x1="1541.54" y1="526.996" x2="74.1765" y2="-53.5176" gradientUnits="userSpaceOnUse">
<stop stop-color="#BAD2CF"/>
<stop offset="0.563099" stop-color="#DEE9E8"/>
<stop offset="0.887261" stop-color="#226D64"/>
</linearGradient>
</defs>
</svg>
