<svg width="40" height="40" viewBox="0 0 40 40" fill="none" xmlns="http://www.w3.org/2000/svg">
<circle cx="20" cy="20" r="20" fill="#248C76"/>
<g clip-path="url(#clip0_1079_13909)">
<path d="M30.1124 14.8838L28.3116 16.6846C28.128 16.8682 27.8311 16.8682 27.6475 16.6846L23.3116 12.3486C23.128 12.165 23.128 11.8682 23.3116 11.6846L25.1124 9.88379C25.8428 9.15332 27.0303 9.15332 27.7647 9.88379L30.1124 12.2314C30.8467 12.9619 30.8467 14.1494 30.1124 14.8838ZM21.7647 13.2314L11.5069 23.4893L10.6788 28.2354C10.5655 28.876 11.1241 29.4307 11.7647 29.3213L16.5108 28.4893L26.7686 18.2314C26.9522 18.0479 26.9522 17.751 26.7686 17.5674L22.4327 13.2314C22.2452 13.0479 21.9483 13.0479 21.7647 13.2314ZM15.5108 22.6104C15.2959 22.3955 15.2959 22.0518 15.5108 21.8369L21.5264 15.8213C21.7413 15.6064 22.085 15.6064 22.2999 15.8213C22.5147 16.0361 22.5147 16.3799 22.2999 16.5947L16.2842 22.6104C16.0694 22.8252 15.7256 22.8252 15.5108 22.6104ZM14.1006 25.8955H15.9756V27.3135L13.4561 27.7549L12.2413 26.54L12.6827 24.0205H14.1006V25.8955Z" fill="white"/>
</g>
<defs>
<clipPath id="clip0_1079_13909">
<rect width="20" height="20" fill="white" transform="translate(10.666 9.33301)"/>
</clipPath>
</defs>
</svg>
